<svg xmlns="http://www.w3.org/2000/svg" width="56.14" height="37.503" viewBox="0 0 56.14 37.503">
  <g id="Groupe_6" data-name="Groupe 6" transform="translate(-25 -21.248)">
    <path id="Tracé_1" data-name="Tracé 1" d="M162.14,12.716V-23.213h-7.415V-4.97a15.635,15.635,0,0,1-1.148,6.07,8.993,8.993,0,0,1-8.4,5.873c-4.725,0-7.35-2.953-7.382-8.3l-.033-6.759h-7.383V.543a15.664,15.664,0,0,0,1.411,6.89c1.87,3.9,5.479,6.07,10.467,6.07A12.056,12.056,0,0,0,154,5.6h.722v7.12ZM106-23.213V12.716h7.415V-5.527a15.636,15.636,0,0,1,1.148-6.07,8.993,8.993,0,0,1,8.4-5.873c4.725,0,7.35,2.953,7.383,8.3l.033,7.054h7.383V-11.04a15.664,15.664,0,0,0-1.411-6.89c-1.87-3.9-5.479-6.07-10.467-6.07a12.056,12.056,0,0,0-11.746,7.907h-.722v-7.12Z" transform="translate(-81 45.248)" fill="#fff"/>
  </g>
</svg>
